:FULLY-SPECIFIED
:FORCE-ALL-JOINTS-BE-3DOF
:DEGREES
2548
root 4.05349 13.7339 -23.8981 955.181 80.5929 -127.582
lfemur -38.4985 11.8757 -12.554
ltibia 89.6948 0 0
lfoot -27.879 26.2153 0
ltoes -38.9753 0 0
rfemur -57.1377 -24.0591 10.2026
rtibia 64.9344 0 0
rfoot 0.874557 6.25741 0
rtoes 8.28086 0 0
lowerback 16.8476 -0.310237 -3.54271
upperback -1.04646 -0.775357 3.0515
thorax -10.5682 -0.0453133 5.56633
lowerneck 5.19126 -14.7161 -15.2239
upperneck 0.0628474 -20.6123 15.1202
head 2.32848 -10.4559 6.25986
lclavicle -2.64481e-14 1.58462e-14 0
lhumerus -51.6772 -46.1386 114.508
lradius 106.726 0 0
lwrist 81.435 0 0
lhand 8.8675 400.397 0
lfingers 7.12502 0 0
lthumb 34.052 -652.822 0
rclavicle -2.64481e-14 1.58462e-14 0
rhumerus 11.8902 -12.9468 -57.9309
rradius 76.844 0 0
rwrist 26.815 0 0
rhand -37.5358 -408.088 0
rfingers 7.12502 0 0
rthumb -10.59 282.259 0
2549
root 4.01128 13.7477 -24.0363 958.275 79.1914 -124.635
lfemur -38.7148 11.9169 -12.8451
ltibia 89.5543 0 0
lfoot -27.9637 26.397 0
ltoes -38.8983 0 0
rfemur -57.2399 -23.8081 10.5021
rtibia 65.7447 0 0
rfoot 0.620603 5.56977 0
rtoes 8.33123 0 0
lowerback 16.9113 -0.262035 -3.59581
upperback -1.02978 -0.729517 3.02241
thorax -10.5932 -0.0213457 5.55331
lowerneck 5.21214 -14.7628 -15.2578
upperneck 0.0428166 -20.6835 15.2654
head 2.34305 -10.4932 6.30425
lclavicle -2.58513e-14 1.59064e-14 0
lhumerus -51.1041 -46.6152 114.418
lradius 106.367 0 0
lwrist 81.2449 0 0
lhand 8.79653 400.508 0
lfingers 7.12502 0 0
lthumb 33.985 -652.69 0
rclavicle -2.58513e-14 1.59064e-14 0
rhumerus 13.2458 -11.908 -57.0131
rradius 77.2142 0 0
rwrist 26.3222 0 0
rhand -37.1306 -407.785 0
rfingers 7.12502 0 0
rthumb -10.1988 282.557 0
2550
root 3.96908 13.7614 -24.1744 961.52 77.7136 -121.54
lfemur -38.9423 11.9763 -13.1557
ltibia 89.3977 0 0
lfoot -28.067 26.5875 0
ltoes -38.8174 0 0
rfemur -57.3484 -23.5515 10.8197
rtibia 66.6134 0 0
rfoot 0.346029 4.84147 0
rtoes 8.38857 0 0
lowerback 16.9786 -0.211018 -3.65697
upperback -1.01293 -0.682011 2.99176
thorax -10.6201 0.00387338 5.54281
lowerneck 5.23521 -14.8157 -15.2965
upperneck 0.0239423 -20.764 15.4201
head 2.35969 -10.5353 6.35158
lclavicle -2.51797e-14 1.59164e-14 0
lhumerus -50.5156 -47.1159 114.337
lradius 105.983 0 0
lwrist 81.0519 0 0
lhand 8.72679 400.628 0
lfingers 7.12502 0 0
lthumb 33.9194 -652.547 0
rclavicle -2.51797e-14 1.59164e-14 0
rhumerus 14.6932 -10.8099 -56.0391
rradius 77.6174 0 0
rwrist 25.8161 0 0
rhand -36.7011 -407.466 0
rfingers 7.12502 0 0
rthumb -9.7841 282.87 0
2551
root 3.92687 13.7752 -24.3126 964.905 76.1631 -118.308
lfemur -39.1801 12.0531 -13.4843
ltibia 89.2261 0 0
lfoot -28.1874 26.7857 0
ltoes -38.7327 0 0
rfemur -57.4622 -23.2901 11.1544
rtibia 67.536 0 0
rfoot 0.0520896 4.07553 0
rtoes 8.45213 0 0
lowerback 17.0491 -0.157411 -3.72563
upperback -0.995954 -0.632992 2.95968
thorax -10.649 0.0302405 5.53469
lowerneck 5.26013 -14.8741 -15.3395
upperneck 0.00624909 -20.8526 15.5834
head 2.37823 -10.5815 6.40153
lclavicle -2.44385e-14 1.58785e-14 0
lhumerus -49.9108 -47.6387 114.261
lradius 105.576 0 0
lwrist 80.8556 0 0
lhand 8.65765 400.758 0
lfingers 7.12502 0 0
lthumb 33.8544 -652.394 0
rclavicle -2.44385e-14 1.58785e-14 0
rhumerus 16.2247 -9.65662 -55.0138
rradius 78.0513 0 0
rwrist 25.298 0 0
rhand -36.2491 -407.13 0
rfingers 7.12502 0 0
rthumb -9.34778 283.199 0
2552
root 3.88466 13.7889 -24.4508 968.42 74.5434 -114.951
lfemur -39.427 12.1462 -13.829
ltibia 89.041 0 0
lfoot -28.3233 26.9907 0
ltoes -38.644 0 0
rfemur -57.5808 -23.0246 11.5048
rtibia 68.5079 0 0
rfoot -0.259957 3.27498 0
rtoes 8.52117 0 0
lowerback 17.1225 -0.101443 -3.80124
upperback -0.978881 -0.582613 2.92631
thorax -10.6795 0.0576521 5.52884
lowerneck 5.28655 -14.9371 -15.3862
upperneck -0.0102387 -20.9481 15.7542
head 2.39852 -10.6312 6.45379
lclavicle -2.36327e-14 1.57952e-14 0
lhumerus -49.2889 -48.1816 114.19
lradius 105.149 0 0
lwrist 80.6558 0 0
lhand 8.58845 400.897 0
lfingers 7.12502 0 0
lthumb 33.7894 -652.232 0
rclavicle -2.36327e-14 1.57952e-14 0
rhumerus 17.8327 -8.45223 -53.9421
rradius 78.5136 0 0
rwrist 24.7693 0 0
rhand -35.7765 -406.781 0
rfingers 7.12502 0 0
rthumb -8.89153 283.542 0
2553
root 3.84246 13.8027 -24.589 972.053 72.8582 -111.479
lfemur -39.6818 12.2546 -14.1883
ltibia 88.8433 0 0
lfoot -28.4731 27.2015 0
ltoes -38.5515 0 0
rfemur -57.7033 -22.7558 11.8698
rtibia 69.5245 0 0
rfoot -0.588856 2.44281 0
rtoes 8.59494 0 0
lowerback 17.1985 -0.0433379 -3.88323
upperback -0.96174 -0.531025 2.89179
thorax -10.7115 0.0860049 5.52511
lowerneck 5.31415 -15.0041 -15.4361
upperneck -0.0254966 -21.0494 15.9317
head 2.4204 -10.6839 6.50804
lclavicle -2.27677e-14 1.56687e-14 0
lhumerus -48.6492 -48.7429 114.121
lradius 104.703 0 0
lwrist 80.4522 0 0
lhand 8.51853 401.044 0
lfingers 7.12502 0 0
lthumb 33.7238 -652.06 0
rclavicle -2.27677e-14 1.56687e-14 0
rhumerus 19.5093 -7.2009 -52.8289
rradius 79.002 0 0
rwrist 24.2313 0 0
rhand -35.2851 -406.418 0
rfingers 7.12502 0 0
rthumb -8.41707 283.899 0
